<?xml version="1.0" standalone="no"?>
<!DOCTYPE svg PUBLIC "-//W3C//DTD SVG 1.1//EN" "http://www.w3.org/Graphics/SVG/1.1/DTD/svg11.dtd" >
<svg xmlns="http://www.w3.org/2000/svg" xmlns:xlink="http://www.w3.org/1999/xlink" version="1.1">
<metadata></metadata>
<defs>
<font id="axisbold" horiz-adv-x="1024" >
<font-face units-per-em="2048" ascent="1536" descent="-512" />
<missing-glyph horiz-adv-x="862" />
<glyph horiz-adv-x="0" />
<glyph horiz-adv-x="682" />
<glyph unicode=" "  horiz-adv-x="862" />
<glyph unicode="&#x09;" horiz-adv-x="862" />
<glyph unicode="&#xa0;" horiz-adv-x="862" />
<glyph unicode="!" horiz-adv-x="663" d="M100 135q0 80 64 135q61 52 143 52q90 0 148 -52q61 -55 61 -135q0 -79 -61 -131q-58 -55 -148 -55q-82 0 -143 55q-64 52 -64 131zM154 451v1030h313v-1030h-313z" />
<glyph unicode="&#x22;" horiz-adv-x="813" d="M133 895v553h221v-553h-221zM459 895v553h223v-553h-223z" />
<glyph unicode="#" horiz-adv-x="1695" d="M113 229v308h231v372h-231v308h231v231h307v-231h373v231h307v-231h230v-308h-230v-372h230v-308h-230v-229h-307v229h-373v-229h-307v229h-231zM651 537h373v372h-373v-372z" />
<glyph unicode="$" horiz-adv-x="1058" d="M39 504h291q1 -6 2.5 -16.5t14.5 -36.5t33 -46t62 -36.5t97 -16.5q79 0 139.5 40t60.5 91q0 34 -20 61t-48.5 43t-70 28.5t-72.5 17.5t-69.5 10.5t-48.5 7.5q-34 7 -61 13.5t-65.5 19.5t-67.5 28t-60.5 38t-52 50t-33.5 64.5t-13 81.5q0 122 96.5 217.5t247.5 128.5v144 h269v-144q154 -29 238.5 -113t84.5 -184h-276q0 12 -10.5 26t-31 28.5t-60 24t-89.5 9.5q-74 0 -126 -40t-52 -97q0 -25 17.5 -43.5t48.5 -28t58.5 -15t64 -9.5t47.5 -6q149 -26 213 -49q233 -84 233 -312q0 -117 -102 -212t-258 -128v-143h-269v143q-88 18 -159.5 59.5 t-114.5 93t-65.5 105.5t-22.5 103z" />
<glyph unicode="%" horiz-adv-x="1708" d="M78 1163q-16 128 63 219q72 97 201 113h31q116 0 200.5 -76t94.5 -190q15 -120 -62 -217q-77 -95 -203 -111q-10 -2 -30 -2q-116 0 -200.5 75t-94.5 189zM244 1182q6 -48 43 -80.5t86 -32.5q10 0 14 2q48 3 86 47q33 41 27 92q-4 49 -40.5 82t-86.5 33h-15 q-48 -3 -86 -47q-31 -39 -28 -96zM412 -2l516 1444h303l-524 -1444h-295zM985 209q-12 121 64 219q85 98 200 107q24 4 31 4q115 0 200 -76.5t99 -192.5q10 -127 -68 -219q-75 -94 -196 -106q-12 -2 -35 -2q-114 0 -198 75.5t-97 190.5zM1155 227q4 -49 40.5 -82.5 t84.5 -33.5q10 0 14 2q56 6 86 47q35 41 29 96q-6 48 -42.5 80.5t-86.5 32.5h-12q-59 -11 -86 -50q-35 -47 -27 -92z" />
<glyph unicode="&#x26;" horiz-adv-x="1667" d="M182 532q13 96 67 180t138 144q-107 122 -88 279q13 103 82 184t174.5 121.5t222.5 29.5q178 -18 291 -141q111 -127 90 -280q-12 -95 -72.5 -172t-152.5 -121l158 -138l112 246l264 -100l-155 -340l278 -242l-202 -178l-197 166q-88 -103 -224.5 -157.5t-287.5 -39.5h-6 q-112 12 -210 61.5t-167 127.5q-143 158 -115 370zM481 498q-12 -93 54 -172t174 -88h4q80 -9 152 26t108 98l-352 312q-58 -27 -94.5 -72.5t-45.5 -103.5zM606 1094q0 -46 37 -79.5t88 -33.5q52 0 89.5 33.5t37.5 79.5t-37 78t-90 32q-51 0 -88 -32t-37 -78z" />
<glyph unicode="'" horiz-adv-x="448" d="M115 895v553h223v-553h-223z" />
<glyph unicode="(" horiz-adv-x="700" d="M53 631q0 419 269 846l241 -164q-1 -2 -28 -50.5t-45.5 -83.5t-48 -105t-48 -132.5t-33 -146.5t-14.5 -164q0 -74 12 -148t24.5 -124t47 -131t50.5 -113.5t64 -127.5q13 -25 19 -38l-241 -162q-123 167 -196 396.5t-73 447.5z" />
<glyph unicode=")" horiz-adv-x="692" d="M55 -47q1 2 28 50.5t45.5 83.5t48 105t48 132.5t33 146.5t14.5 164q0 74 -12 148t-24.5 124t-47 131t-50.5 113.5t-64 127.5q-13 25 -19 38l242 162q124 -172 196 -400.5t72 -443.5q0 -420 -268 -846z" />
<glyph unicode="*" horiz-adv-x="989" d="M113 1024v141h227l-162 160l98 96l160 -159v227h139v-227l162 159l97 -96l-160 -160h225v-141h-225l160 -160l-97 -96l-162 160v-228h-139v228l-160 -160l-98 96l162 160h-227z" />
<glyph unicode="+" horiz-adv-x="1292" d="M102 571v265h416v415h264v-415h416v-265h-416v-415h-264v415h-416z" />
<glyph unicode="," horiz-adv-x="610" d="M41 -350l100 323q-69 69 -69 168q0 100 69.5 169t169.5 69q99 0 169.5 -69.5t70.5 -168.5q0 -80 -43 -135l-242 -356h-225z" />
<glyph unicode="-" horiz-adv-x="997" d="M82 430v287h758v-287h-758z" />
<glyph unicode="." horiz-adv-x="704" d="M127 156q0 92 74 157q72 62 170 62t170 -62q71 -68 71 -157t-71 -154q-69 -63 -170 -63t-170 63q-74 62 -74 154z" />
<glyph unicode="/" horiz-adv-x="843" d="M143 0l306 1440h286l-301 -1440h-291z" />
<glyph unicode="0" horiz-adv-x="1386" d="M55 719q0 207 83 382t226 276.5t312 101.5q127 0 242 -60t198.5 -162t132.5 -242.5t49 -295.5q0 -154 -49 -294.5t-132.5 -242t-198.5 -161.5t-242 -60q-169 0 -312 101.5t-226 276t-83 380.5zM352 717q0 -123 43.5 -228t118 -166t162.5 -61t163 61t118.5 166t43.5 228 q0 188 -95 320t-230 132q-134 0 -229 -132.5t-95 -319.5z" />
<glyph unicode="1" horiz-adv-x="911" d="M109 936v231q6 1 17.5 2.5t44 10.5t62 20.5t66.5 34.5t64.5 50.5t48 70t24.5 92.5h344v-1446h-344v934h-327z" />
<glyph unicode="2" horiz-adv-x="1251" d="M123 0v283q0 50 24 96.5t59 80t89.5 68.5t98.5 57t105 51.5t91 45.5q155 84 221 139t66 121q0 24 -2 45.5t-15.5 59.5t-36.5 65t-70 47.5t-112 20.5q-238 0 -238 -238h-280q0 80 19 154t60.5 141t101 117t146.5 79t191 29q124 0 225 -44.5t164 -118.5t97 -166t34 -191 q0 -77 -30 -146.5t-66.5 -115t-108.5 -97.5t-113 -75.5t-123 -67.5q-8 -4 -11 -6q-37 -20 -95.5 -47t-93.5 -46.5t-57 -41.5h698v-299h-1038z" />
<glyph unicode="3" horiz-adv-x="1282" d="M135 408h291q0 -87 69.5 -139t172.5 -52t172 52t69 139q0 63 -14 109t-35.5 72.5t-55 42t-64.5 20.5t-72 5h-301v234l376 301h-575v256h977v-256l-375 -301q194 0 312 -134.5t118 -348.5q0 -127 -71 -232.5t-193.5 -166t-267.5 -60.5t-267.5 60.5t-194 166t-71.5 232.5z " />
<glyph unicode="4" horiz-adv-x="1503" d="M137 375v266l711 807h348v-807h209v-266h-209v-375h-344v375h-715zM526 641h326v408z" />
<glyph unicode="5" horiz-adv-x="1337" d="M143 434h293q0 -83 80 -142t186 -59q98 0 172 76t74 160q0 54 -10 90t-36.5 64.5t-75.5 41.5t-124 13h-520v770h922v-268h-649v-217h247q262 0 401.5 -126t139.5 -368q0 -93 -39.5 -184.5t-111.5 -163.5q-78 -79 -179 -121.5t-211 -42.5q-231 0 -393 131 q-166 138 -166 346z" />
<glyph unicode="6" horiz-adv-x="1245" d="M41 459q0 54 34 134t113 216q48 82 139.5 241.5t158.5 278.5l67 119h344l-252 -498q128 0 231.5 -41.5t167.5 -111.5t98 -156.5t34 -181.5q0 -135 -76 -250t-207 -182.5t-285 -67.5t-284.5 67.5t-206.5 182.5t-76 250zM342 459q0 -97 78 -165.5t188 -68.5 q109 0 187.5 68.5t78.5 165.5q0 96 -78.5 164.5t-187.5 68.5q-72 0 -126.5 -23t-83.5 -59.5t-42.5 -74.5t-13.5 -76z" />
<glyph unicode="7" horiz-adv-x="1261" d="M111 1163v285h1036v-274l-494 -1174h-395l520 1163h-667z" />
<glyph unicode="8" horiz-adv-x="1171" d="M37 420q0 100 48.5 189.5t135.5 154.5q-121 121 -121 283q0 118 65 217.5t176.5 157t242.5 57.5t242 -57.5t176 -157t65 -217.5q0 -159 -121 -283q85 -66 133.5 -155.5t48.5 -188.5q0 -125 -73 -231t-198.5 -168t-272.5 -62q-149 0 -275 62t-199 168t-73 231zM303 420 q0 -79 82.5 -136t198.5 -57q114 0 196 57t82 136t-82 135.5t-196 56.5q-116 0 -198.5 -56.5t-82.5 -135.5zM365 1047q0 -66 65.5 -115t153.5 -49q87 0 151 49t64 115q0 69 -63.5 117t-151.5 48q-89 0 -154 -48.5t-65 -116.5z" />
<glyph unicode="9" horiz-adv-x="1216" d="M45 997q0 135 73.5 249t200 180.5t275.5 66.5t275.5 -66.5t200 -180.5t73.5 -249q0 -103 -33 -168q-43 -94 -153.5 -301t-199.5 -368l-89 -160h-389l268 502q-212 17 -357 159t-145 336zM369 997q0 -85 65.5 -144.5t159.5 -59.5t159.5 59.5t65.5 144.5t-65.5 144 t-159.5 59t-159.5 -59t-65.5 -144z" />
<glyph unicode=":" horiz-adv-x="579" d="M61 356q0 90 64.5 153.5t155.5 63.5t155 -63t64 -154t-64 -155t-155 -64t-155.5 64t-64.5 155zM61 1051q0 90 64.5 153.5t155.5 63.5t155 -63t64 -154t-64 -155.5t-155 -64.5t-155.5 64.5t-64.5 155.5z" />
<glyph unicode=";" horiz-adv-x="661" d="M47 -373l96 314q-65 65 -65 161q0 97 67 164.5t164 67.5q96 0 164 -68t68 -164q0 -75 -41 -131l-236 -344h-217zM88 760q0 91 64 154t155 63t155 -63t64 -154t-64 -155t-155 -64t-155 64t-64 155z" />
<glyph unicode="&#x3c;" horiz-adv-x="899" d="M61 784l562 562l225 -228l-334 -334l334 -335l-225 -226z" />
<glyph unicode="=" d="M82 293v285h856v-285h-856zM82 850v287h856v-287h-856z" />
<glyph unicode="&#x3e;" horiz-adv-x="954" d="M61 451l334 333l-334 336l226 226l561 -562l-561 -561z" />
<glyph unicode="?" horiz-adv-x="1060" d="M63 1081v17q0 81 29 149q26 73 86 133q130 136 352 136q99 0 191 -29q95 -40 149 -86q60 -54 97 -133q34 -75 34 -170q0 -25 -6 -50.5t-12.5 -45t-24 -44t-27 -38.5t-35 -37.5t-34 -32t-39.5 -32.5t-36 -27t-37 -27q-72 -53 -76 -57q-22 -26 -29 -68q-10 -54 -10 -176 v-19h-320v19q0 204 23 274q13 47 42.5 80.5t82.5 61.5q77 36 141 88q82 67 82 131q0 47 -17 79t-44.5 46t-49.5 19t-45 5q-47 0 -82 -15.5t-53 -39.5t-26.5 -48t-8.5 -46v-17h-297zM262 129q0 77 60 131q57 51 143 51q84 0 141 -51q62 -56 62 -131q0 -73 -62 -129 q-54 -51 -141 -51q-89 0 -143 51q-60 54 -60 129z" />
<glyph unicode="@" horiz-adv-x="1642" d="M55 715q0 227 123 413q108 163 277 256t362 93q149 0 287 -57.5t246 -162.5h4l2 -4l4 -4v-2q105 -108 162 -245t57 -287q0 -111 -32 -215.5t-82 -178t-111.5 -117.5t-120.5 -44q-91 3 -143 41q-43 31 -71 79t-32 101l-2 22q-87 -57 -178 -69q-14 -2 -43 -2 q-146 0 -254 97t-125 245q-17 158 81.5 280.5t256.5 139.5q14 2 43 2q111 0 203 -56v41h205v-671q0 -27 17 -44.5t42 -17.5q7 0 14 1.5t14 6t12 8.5t12.5 12t12 13t13.5 16t14 17q18 31 31 59q0 1 6 23l2 2q0 1 1 3t1 3q3 6 6 18l2 5q0 2 2 4l6 18v4q2 2 2 4q0 6 5 21l2 4v4 q2 6 2 18l2 4v9q0 2 1 6.5t1 7.5v4l2 4v6q2 4 2 15v4v4v8v12v6v5v8q0 123 -50 236t-141 196q-78 74 -180.5 112.5t-212.5 38.5q-131 0 -249.5 -55t-202.5 -156q-134 -162 -134 -372v-29l2 -2v-2v-27v-4q5 -15 5 -24l2 -2v-4q0 -4 1 -12t1 -11l2 -4q0 -7 4 -23l2 -2v-2 q0 -4 6 -22l2 -6q4 -18 8 -23l2 -4q6 -24 6 -25l2 -2l3 -2q1 -2 4 -8.5t4 -11.5l2 -2v-2q46 -95 122.5 -168.5t172.5 -114.5q4 -2 11 -4t11 -4l2 -2h6q13 -6 19 -8h4q0 -2 4 -2l18 -6l5 -3h4q12 -3 18 -6h2h4q2 0 4 -2q13 0 19 -2h2h4h4q3 -1 8.5 -2t7.5 -2h7h2q2 -2 6 -2 h16h4h6l4 -2h25h2h4h29h2v2h26h7q12 4 24 4v2h4q4 0 12.5 1t12.5 1h2q5 1 25 6l2 2h2h4l10 3l6 -9l105 -112l18 -21l-23 -6q-131 -49 -268 -49q-155 0 -296 60.5t-243 162.5t-162.5 243t-60.5 296zM590 696q9 -67 58.5 -111t115.5 -44h18q72 6 119 63q48 57 39 129 q-7 66 -57.5 111t-116.5 45h-18q-73 -7 -119.5 -64.5t-38.5 -128.5z" />
<glyph unicode="A" horiz-adv-x="1753" d="M106 0l662 1331h242l637 -1331h-355l-90 182h-645l-90 -182h-361zM690 442h387l-198 428z" />
<glyph unicode="B" horiz-adv-x="1402" d="M156 0v1331h712q74 0 144 -26.5t127 -75t92 -125.5t35 -170q0 -121 -56 -225q109 -129 109 -283q0 -96 -35.5 -178t-94.5 -135.5t-132 -83t-150 -29.5h-751zM475 268h420q54 0 92.5 41t38.5 101q0 62 -38.5 101.5t-92.5 39.5h-420v-283zM475 811h375q47 2 82 38.5 t35 90.5q0 55 -35 93t-82 38h-375v-260z" />
<glyph unicode="C" horiz-adv-x="1462" d="M115 666q0 143 55.5 272.5t149 224t223 150t272.5 55.5q170 0 319 -77t246 -210l-241 -155q-148 135 -324 135q-163 0 -278 -116t-115 -279t115 -278.5t278 -115.5q96 0 168 31.5t156 102.5l241 -156q-97 -132 -245.5 -208.5t-319.5 -76.5q-190 0 -351.5 94t-255 255.5 t-93.5 351.5z" />
<glyph unicode="D" horiz-adv-x="1529" d="M188 0v1331h631q150 0 276 -52t210.5 -141.5t132 -211t47.5 -258.5q0 -182 -89 -335.5t-242.5 -243t-334.5 -89.5h-631zM508 319h342q128 5 221.5 104t93.5 245q0 147 -93 245.5t-222 98.5h-342v-693z" />
<glyph unicode="E" horiz-adv-x="1198" d="M141 0v1331h1002v-287h-682v-237h538v-285h-538v-237h682v-285h-1002z" />
<glyph unicode="F" horiz-adv-x="1230" d="M178 0v1044v287h1004v-287h-684v-303h538v-286h-538v-455h-320z" />
<glyph unicode="G" horiz-adv-x="1511" d="M164 668q0 114 35.5 221t100.5 193.5t151.5 151.5t193.5 100.5t221 35.5q172 0 312 -69.5t237 -200.5l-244 -156q-64 60 -136.5 89.5t-168.5 29.5q-163 0 -279 -116t-116 -279t116 -278.5t279 -115.5q167 0 285 121v140h-403v256h684v-541h-2q-97 -131 -245 -207 t-319 -76q-190 0 -352 94t-256 255.5t-94 351.5z" />
<glyph unicode="H" horiz-adv-x="1486" d="M174 0v1331h320v-557h581v557h320v-1331h-320v487h-581v-487h-320z" />
<glyph unicode="I" horiz-adv-x="575" d="M133 0v1331h320v-1331h-320z" />
<glyph unicode="J" horiz-adv-x="1198" d="M74 543h286q0 -120 63.5 -205.5t154.5 -85.5q93 0 155 85.5t62 237.5v756h319v-758q0 -286 -133.5 -447t-402.5 -161q-222 0 -363 162t-141 416z" />
<glyph unicode="K" horiz-adv-x="1640" d="M215 0v1331h320v-534l548 534h406l-598 -581l633 -750h-453l-401 514l-135 -139v-375h-320z" />
<glyph unicode="L" horiz-adv-x="1449" d="M172 0v1331h320v-1012h833v-319h-1153z" />
<glyph unicode="M" horiz-adv-x="1705" d="M184 0v1331h322v-6l377 -747l383 753v-2v2h319v-1331h-319v680l-314 -680h-139l-307 674v-674h-322z" />
<glyph unicode="N" horiz-adv-x="1695" d="M272 0v1331h320l663 -829v829h320v-1331h-320l-663 797v-797h-320z" />
<glyph unicode="O" horiz-adv-x="1650" d="M160 664q0 143 55.5 272.5t149.5 224t224 150t273 55.5q190 0 351.5 -94t255.5 -256t94 -352t-94 -351.5t-255.5 -255.5t-351.5 -94q-143 0 -273 55.5t-224 149.5t-149.5 223.5t-55.5 272.5zM467 664q0 -163 115.5 -278.5t279.5 -115.5q163 0 278 115.5t115 278.5 t-115 279t-278 116q-164 0 -279.5 -116t-115.5 -279z" />
<glyph unicode="P" horiz-adv-x="1349" d="M182 0v1331h647q133 0 241 -69.5t169 -181t68 -242.5v-31v-31q-8 -135 -80 -248.5t-190 -179t-255 -65.5h-274v-283h-326zM508 608h270q83 0 141 58t58 141q0 82 -56.5 140t-138.5 59h-274v-398z" />
<glyph unicode="Q" horiz-adv-x="1873" d="M279 668q0 142 55.5 271.5t149 223.5t223.5 149.5t272 55.5q143 0 273 -55.5t224 -149.5t149.5 -223.5t55.5 -271.5q0 -205 -110 -379l131 -131l-223 -226l-136 136q-170 -103 -364 -103q-190 0 -351.5 94.5t-255 256.5t-93.5 352zM586 668q0 -164 115 -280t278 -116 q62 0 139 25l-157 158l225 225l157 -162q31 70 31 150q0 163 -116 278t-279 115t-278 -115t-115 -278z" />
<glyph unicode="R" horiz-adv-x="1480" d="M199 0v1331h647q133 0 243 -70t172 -190t62 -264q0 -140 -64 -243t-174 -163l293 -401h-401l-219 332h-234v-332h-325zM524 625h271q84 0 141 50.5t57 131.5q0 82 -57 139.5t-139 57.5h-273v-379z" />
<glyph unicode="S" horiz-adv-x="1439" d="M131 412h346q0 -6 3 -20.5t17.5 -44.5t39 -54.5t74.5 -44t116 -19.5q95 0 168.5 48t73.5 110q0 40 -24 72.5t-58.5 51.5t-84.5 33.5t-88 21t-84 13t-59 9.5q-40 8 -73 16t-78 23.5t-80 33t-72 45t-61 60t-39.5 77.5t-15.5 97q0 116 75 214.5t204 156t280 57.5 q135 0 244.5 -32.5t176.5 -85.5t102.5 -118t35.5 -133h-330q0 14 -12 30.5t-36.5 33.5t-72 28t-108.5 11q-88 0 -150.5 -47.5t-62.5 -114.5q0 -31 20.5 -53t58.5 -33.5t69 -17.5t76 -10.5t56 -6.5q161 -30 222 -49q263 -83 306 -292q9 -43 9 -91q0 -112 -80.5 -209.5 t-216 -155t-291.5 -57.5q-117 0 -218 29t-169 76t-116.5 106.5t-70.5 119.5t-22 116z" />
<glyph unicode="T" horiz-adv-x="1484" d="M88 1044v287h1331v-287h-506v-1044h-319v1044h-506z" />
<glyph unicode="U" horiz-adv-x="1495" d="M86 678v653h326v-653q0 -159 100 -271t252 -112q150 0 250 112t100 271v653h326v-653q0 -157 -53 -291.5t-143.5 -226t-215 -143.5t-264.5 -52q-141 0 -265.5 52t-215.5 143.5t-144 226t-53 291.5z" />
<glyph unicode="V" horiz-adv-x="1386" d="M-41 1331h365l366 -815l365 815h364l-569 -1331h-320z" />
<glyph unicode="W" horiz-adv-x="2109" d="M-102 1331h364l367 -815l282 815h316l284 -815l365 815h365l-572 -1331h-352l-248 739l-248 -739h-352z" />
<glyph unicode="X" horiz-adv-x="1558" d="M94 211l457 459l-457 450l244 244l459 -451l448 455l244 -244l-453 -458l453 -457l-244 -244l-448 455l-459 -453z" />
<glyph unicode="Y" horiz-adv-x="1533" d="M12 1331h398l362 -483l361 483h397l-559 -770v-561h-398v561z" />
<glyph unicode="Z" horiz-adv-x="1427" d="M195 0v326l669 694h-669v311h1118v-311l-697 -694h697v-326h-1118z" />
<glyph unicode="[" horiz-adv-x="600" d="M82 0v1448h442v-207h-174v-1028h174v-213h-442z" />
<glyph unicode="\" horiz-adv-x="806" d="M141 1448h287l307 -1448h-291z" />
<glyph unicode="]" horiz-adv-x="620" d="M104 -2v215h175v1028h-175v207h443v-1450h-443z" />
<glyph unicode="^" horiz-adv-x="802" d="M68 1499l319 320l320 -320l-132 -129l-188 191l-190 -191z" />
<glyph unicode="_" horiz-adv-x="1120" d="M82 0v236h979v-236h-979z" />
<glyph unicode="`" horiz-adv-x="540" d="M51 1352l139 112l283 -342l-139 -112z" />
<glyph unicode="a" horiz-adv-x="1462" d="M88 528q0 116 43 220q45 102 121 178t178 121q109 45 221 45q110 0 219 -45q71 -32 127 -76v82h316v-1053h-316v84q-56 -44 -127 -76q-104 -43 -219 -43q-117 0 -221 43q-102 45 -178 121q-77 77 -121 180q-43 104 -43 219zM367 528q0 -118 82.5 -201t201.5 -83 q117 0 200 83t83 201q0 117 -83 200t-200 83q-118 0 -201 -83t-83 -200z" />
<glyph unicode="b" horiz-adv-x="1415" d="M154 0v1448h319v-471q152 117 344 117q147 0 277.5 -76.5t209 -208t78.5 -281.5q0 -148 -76 -278.5t-207 -208.5t-282 -78q-188 0 -344 117v-80h-319zM532 528q0 -118 83 -201t202 -83q117 0 201 83t84 201t-84 201.5t-201 83.5q-119 0 -202 -83.5t-83 -201.5z" />
<glyph unicode="c" horiz-adv-x="1241" d="M117 528q0 110 44.5 213.5t119.5 180.5t179.5 123.5t219.5 46.5q127 0 241 -57t203 -158l-221 -185q-39 56 -100 88.5t-131 32.5q-119 0 -203 -83.5t-84 -201.5t84 -201t203 -83q68 0 127.5 29.5t99.5 82.5l219 -182q-99 -99 -202 -154t-236 -55q-108 0 -210.5 44 t-180 118t-125 179.5t-47.5 221.5z" />
<glyph unicode="d" horiz-adv-x="1447" d="M94 530q0 145 75 275.5t207 210.5t286 80q186 0 346 -117v469h319v-1448h-319v80q-159 -117 -346 -117q-149 0 -280 76.5t-209.5 208t-78.5 282.5zM377 530q0 -119 83.5 -202.5t201.5 -83.5t201 83.5t83 202.5q0 117 -83 201t-201 84t-201.5 -84t-83.5 -201z" />
<glyph unicode="e" horiz-adv-x="1261" d="M137 467q-3 29 -3 58q0 65 16 131q22 94 73 171t122 137.5t162.5 94t190.5 33.5q85 0 163 -27t137 -74.5t107 -112t73 -138.5q26 -76 36 -158q4 -33 4 -65q0 -50 -10 -99h-784q32 -84 106 -134.5t166 -50.5q130 0 232 111l229 -141q-98 -113 -208.5 -175.5t-252.5 -62.5 q-217 0 -376.5 143.5t-182.5 358.5zM424 621h522q0 81 -77.5 141.5t-170.5 60.5q-111 0 -192.5 -61.5t-81.5 -140.5z" />
<glyph unicode="f" d="M121 807v250h186v82q0 114 45.5 193.5t125.5 117.5q78 38 185 38h3q109 -1 235 -42v-201q-6 1 -15.5 2.5t-38 4t-54.5 2t-57.5 -6.5t-54.5 -17.5t-38.5 -35t-15.5 -55.5v-82h245v-250h-2h-243v-807h-320v807h-186z" />
<glyph unicode="g" horiz-adv-x="1320" d="M72 512q0 155 76.5 287t208.5 209t288 77q148 0 260 -90v60h318v-1030q0 -87 -23.5 -175t-75.5 -172t-125 -149t-181 -105t-236 -40q-90 0 -181 29t-137.5 55.5t-79.5 52.5l213 237q83 -57 185 -57q127 0 219.5 87t101.5 212q-122 -61 -258 -61q-117 0 -223 45.5 t-182.5 122t-122 182.5t-45.5 223zM336 524q0 -118 82.5 -201t199.5 -83q112 0 199.5 82t87.5 196q0 115 -83.5 203t-203.5 88q-117 0 -199.5 -83.5t-82.5 -201.5z" />
<glyph unicode="h" horiz-adv-x="1476" d="M246 0v1450h321v-504l14.5 14.5t36.5 28.5t61 38.5t77 28t96 13.5q91 0 167 -20t130 -53.5t95.5 -81.5t67 -100t42 -112.5t22.5 -115t6 -111.5v-475h-315v475q0 124 -58.5 191t-193.5 67q-101 0 -173.5 -74t-74.5 -178v-481h-321z" />
<glyph unicode="i" horiz-adv-x="540" d="M139 1360q0 76 55 131t132 55q76 0 130 -54.5t54 -131.5q0 -76 -54 -130t-130 -54q-77 0 -132 54t-55 130zM166 0v1051h319v-1051h-319z" />
<glyph unicode="j" horiz-adv-x="876" d="M182 -276q201 81 201 325v1002h317v-1002q0 -159 -51 -276q-58 -145 -184 -246.5t-283 -132.5v330zM356 1358q0 76 55 131t130 55q77 0 131.5 -55t54.5 -131q0 -75 -55 -129.5t-131 -54.5q-75 0 -130 54.5t-55 129.5z" />
<glyph unicode="k" horiz-adv-x="1533" d="M190 0v1448h320v-705l332 312h389l-406 -414l551 -641h-424l-307 430l-135 -133v-297h-320z" />
<glyph unicode="l" horiz-adv-x="534" d="M141 0v1448h320v-1448h-320z" />
<glyph unicode="m" horiz-adv-x="2193" d="M168 0v1055h319v-84l14 14t36.5 28t60 36.5t77 27.5t95.5 13q311 0 440 -218q45 72 109 125q111 91 276 91q47 0 97 -7q96 -15 169.5 -57.5t117 -97.5t71 -126.5t37.5 -138t10 -139.5v-522h-317v522q0 131 -55.5 193.5t-190.5 62.5q-101 0 -170.5 -72.5t-69.5 -177.5 v-528h-317v522q0 131 -55.5 193.5t-190.5 62.5q-101 0 -170 -72.5t-69 -177.5v-528h-324z" />
<glyph unicode="n" horiz-adv-x="1316" d="M129 0v1055h317v-84l14 14t36.5 28t60 36.5t77 27.5t95.5 13q124 0 219.5 -36t152 -92t92 -134t48 -151t12.5 -155v-522h-317v522q0 132 -55 194t-191 62q-101 0 -169 -72.5t-70 -177.5v-528h-322z" />
<glyph unicode="o" horiz-adv-x="1327" d="M143 520v13q0 102 43 206q45 105 121 181q77 77 178 120q109 45 220 45q117 0 219 -45q98 -39 180 -118q79 -82 121 -181q42 -101 45 -219q0 -110 -45 -219q-42 -99 -121 -178q-74 -76 -178 -121q-102 -45 -219 -45q-116 0 -220 43q-97 42 -180 121q-76 76 -121 178 q-43 104 -43 219zM422 522q0 -118 83 -201t202 -83q117 0 199.5 83.5t82.5 200.5q0 118 -82.5 200.5t-201.5 82.5q-117 0 -200 -83t-83 -200z" />
<glyph unicode="p" horiz-adv-x="1423" d="M166 -426v1481h317v-74q62 46 125 74q104 43 219 43q118 0 222 -43q102 -45 178 -121q79 -83 121 -180q45 -109 45 -219q0 -111 -45 -220q-42 -97 -121 -180q-76 -76 -178 -121q-104 -43 -222 -43q-115 0 -219 43q-63 28 -125 74v-514h-317zM545 535q0 -118 82.5 -201.5 t199.5 -83.5q119 0 202 83t83 202q0 118 -83 201t-202 83q-117 0 -199.5 -83t-82.5 -201z" />
<glyph unicode="q" horiz-adv-x="1474" d="M137 530q0 111 45 220q44 103 121 180t180 121q102 45 219 45q120 0 222 -45q64 -25 123 -72v80h319v-1438h-319v459q-51 -40 -123 -72q-104 -43 -222 -43q-115 0 -219 43q-105 45 -180 123q-79 79 -121 178q-45 109 -45 221zM418 530q0 -118 83.5 -201t200.5 -83 q119 0 202 83t83 201t-83.5 201.5t-201.5 83.5q-117 0 -200.5 -83.5t-83.5 -201.5z" />
<glyph unicode="r" horiz-adv-x="1040" d="M248 0v1053h315v-123q8 20 21 40t41 48.5t77 46.5t111 18q55 0 98 -12v-268q-30 6 -65 6q-119 0 -201 -87t-82 -235v-487h-315z" />
<glyph unicode="s" horiz-adv-x="1210" d="M145 340h299q0 -68 54.5 -105.5t128.5 -37.5q34 0 72 10t71 36.5t33 63.5q0 35 -25.5 61t-72 41t-80 22t-80.5 13q-154 18 -256 82q-57 33 -91 88.5t-34 124.5q0 95 60.5 175t164 126.5t225.5 46.5q209 0 338 -94q115 -86 115 -221h-272q0 33 -35.5 55t-73 28.5 t-70.5 6.5q-38 0 -69.5 -6.5t-58.5 -30t-27 -61.5q0 -20 13.5 -34t44 -24t58.5 -15.5t78 -12.5q198 -29 293 -84q70 -41 111 -107q26 -54 31 -79q12 -47 12 -101q0 -68 -39 -135q-39 -63 -105 -109q-62 -48 -149 -73q-92 -29 -182 -29q-118 0 -211 37q-96 34 -152 90 q-69 70 -94 130t-25 122z" />
<glyph unicode="t" horiz-adv-x="972" d="M147 813v242h156v393h330v-393h287v-242h-287v-340q0 -43 5 -75.5t13 -54.5t23 -36.5t28.5 -22.5t36.5 -12t40.5 -5t45.5 -1h6v-284q-78 -15 -142 -15q-35 0 -65 4q-88 12 -149.5 44t-99.5 88t-55 121.5t-17 144.5v444h-156z" />
<glyph unicode="u" horiz-adv-x="1378" d="M174 532v523h318v-523q0 -132 54 -194t189 -62q101 0 169.5 71.5t70.5 176.5q4 328 4 531h317v-1055h-317v84l-14 -14t-36.5 -28t-59.5 -36.5t-76 -27.5t-95 -13q-124 0 -219.5 36t-152 91.5t-92 133.5t-48 151.5t-12.5 154.5z" />
<glyph unicode="v" horiz-adv-x="1206" d="M-2 1055h311l273 -633l274 633h309l-407 -1055h-352z" />
<glyph unicode="w" horiz-adv-x="1906" d="M35 1055h317l262 -647l217 647h259l217 -647l262 647h317l-450 -1055h-285l-190 565l-189 -565h-287z" />
<glyph unicode="x" horiz-adv-x="1216" d="M57 891l201 203l363 -357l354 359l203 -201l-357 -363l357 -360l-201 -203l-356 359l-361 -357l-201 201l359 363z" />
<glyph unicode="y" horiz-adv-x="1069" d="M-35 1055h311l267 -627l264 627h332q-311 -788 -420 -1047q-258 -614 -596 -614v346q89 0 167.5 80t78.5 188z" />
<glyph unicode="z" horiz-adv-x="1089" d="M111 0v266l516 533h-516v256h888v-256l-534 -529h534v-270h-888z" />
<glyph unicode="{" d="M219 713l160 250v563h317v-1624h-317v561z" />
<glyph unicode="|" horiz-adv-x="600" d="M141 -121v1710h273v-1710h-273z" />
<glyph unicode="}" horiz-adv-x="849" d="M217 -100v1624h318v-561l159 -250l-159 -250v-563h-318z" />
<glyph unicode="~" horiz-adv-x="1003" d="M16 1774q16 13 52.5 36t114 51.5t147.5 28.5q65 0 200.5 -54t180.5 -54q43 0 95 25t73 44l145 -190q-10 -9 -34 -24.5t-67 -39t-100 -39.5t-112 -16q-52 0 -126.5 28t-144.5 56.5t-110 28.5q-43 0 -94 -25.5t-72 -44.5z" />
<glyph unicode="&#xa2;" horiz-adv-x="985" d="M100 526q0 94 39 183q34 84 101 151q67 66 149 101q15 7 25 10v133h233v-111q60 -10 109 -32q83 -35 149 -101q27 -27 39 -43l-201 -166q-44 51 -96 76v-399q48 22 92 69l199 -166q-8 -11 -33 -36q-65 -65 -149 -103q-63 -21 -109 -29v-102h-233v123q-4 1 -12.5 4 t-12.5 4q-84 38 -149 103q-66 67 -101 149q-39 89 -39 182zM348 526q0 -89 66 -155v313q-66 -69 -66 -158z" />
<glyph unicode="&#xa9;" horiz-adv-x="796" d="M76 1163q0 123 90 226q52 46 102 65q58 25 119 25q62 0 123 -25q54 -22 100 -65q46 -49 68 -103q24 -56 24 -123q0 -61 -24 -119q-22 -54 -68 -100q-44 -44 -100 -67q-61 -25 -123 -25q-61 0 -119 25q-52 20 -102 67q-45 48 -66 100q-24 59 -24 119zM117 1163 q0 -110 80 -190t190 -80q114 0 194.5 79.5t80.5 190.5q0 114 -80.5 194.5t-194.5 80.5q-111 0 -190.5 -80.5t-79.5 -194.5zM225 1163q0 68 47 117t115 49q70 0 131 -61l-63 -54q-28 35 -70 35q-34 0 -58 -25t-24 -61q0 -34 24 -57t58 -23q45 0 68 33l63 -53 q-21 -29 -57 -45.5t-72 -16.5q-64 0 -113 49.5t-49 112.5z" />
<glyph unicode="&#xab;" horiz-adv-x="1667" d="M61 784l562 562l225 -228l-334 -334l334 -335l-225 -226zM811 784l561 562l225 -228l-333 -334l333 -335l-225 -226z" />
<glyph unicode="&#xad;" horiz-adv-x="997" d="M82 430v287h758v-287h-758z" />
<glyph unicode="&#xae;" horiz-adv-x="823" d="M76 1163q0 67 24 123q21 51 66 103q52 46 102 65q58 25 119 25q62 0 123 -25q54 -22 100 -65q46 -49 68 -103q24 -56 24 -123q0 -61 -24 -119q-22 -54 -68 -100q-44 -44 -100 -67q-61 -25 -123 -25q-61 0 -119 25q-52 20 -102 67q-45 48 -66 100q-24 59 -24 119z M117 1163q0 -110 80 -190t190 -80q114 0 194.5 79.5t80.5 190.5q0 114 -80.5 194.5t-194.5 80.5q-111 0 -190.5 -80.5t-79.5 -194.5zM264 1010v311h152q47 0 79.5 -35t32.5 -86q0 -68 -55 -98l68 -92h-95l-53 77h-53v-77h-76zM340 1155h63q20 0 33 12.5t13 32.5q0 19 -13 32 t-33 13h-63v-90z" />
<glyph unicode="&#xb4;" horiz-adv-x="624" d="M100 1550l283 342l139 -112l-282 -342z" />
<glyph unicode="&#xb8;" d="M238 -209h544v-225h-544v225z" />
<glyph unicode="&#xbb;" horiz-adv-x="1691" d="M61 451l334 333l-334 336l226 226l561 -562l-561 -561zM811 451l334 333l-334 336l225 226l561 -562l-561 -561z" />
<glyph unicode="&#x2c6;" horiz-adv-x="841" d="M68 1499l319 320l320 -320l-132 -129l-188 191l-190 -191z" />
<glyph unicode="&#x2dc;" d="M57 1599q15 12 45.5 31.5t97 44.5t126.5 25q56 0 172 -47t155 -47q35 0 78 21t66 38l125 -162q-15 -12 -45.5 -31.5t-97 -45t-126.5 -25.5q-55 0 -171 48t-156 48q-36 0 -80 -22t-62 -37z" />
<glyph unicode="&#x2000;" horiz-adv-x="946" />
<glyph unicode="&#x2001;" horiz-adv-x="1892" />
<glyph unicode="&#x2002;" horiz-adv-x="946" />
<glyph unicode="&#x2003;" horiz-adv-x="1892" />
<glyph unicode="&#x2004;" horiz-adv-x="630" />
<glyph unicode="&#x2005;" horiz-adv-x="473" />
<glyph unicode="&#x2006;" horiz-adv-x="315" />
<glyph unicode="&#x2007;" horiz-adv-x="315" />
<glyph unicode="&#x2008;" horiz-adv-x="236" />
<glyph unicode="&#x2009;" horiz-adv-x="378" />
<glyph unicode="&#x200a;" horiz-adv-x="105" />
<glyph unicode="&#x2010;" horiz-adv-x="997" d="M82 430v287h758v-287h-758z" />
<glyph unicode="&#x2011;" horiz-adv-x="997" d="M82 430v287h758v-287h-758z" />
<glyph unicode="&#x2012;" horiz-adv-x="997" d="M82 430v287h758v-287h-758z" />
<glyph unicode="&#x2013;" horiz-adv-x="1263" d="M82 430v287h1024v-287h-1024z" />
<glyph unicode="&#x2014;" horiz-adv-x="2287" d="M82 430v287h2048v-287h-2048z" />
<glyph unicode="&#x2018;" horiz-adv-x="448" d="M133 887v553h221v-553h-221z" />
<glyph unicode="&#x2019;" horiz-adv-x="464" d="M133 887v553h221v-553h-221z" />
<glyph unicode="&#x201a;" horiz-adv-x="526" d="M133 238h221v-553h-221v553z" />
<glyph unicode="&#x201c;" horiz-adv-x="782" d="M133 887v553h221v-553h-221zM459 887v553h223v-553h-223z" />
<glyph unicode="&#x201d;" horiz-adv-x="796" d="M133 887v553h221v-553h-221zM459 887v553h223v-553h-223z" />
<glyph unicode="&#x201e;" horiz-adv-x="813" d="M133 238h221v-553h-221v553zM475 238h221v-553h-221v553z" />
<glyph unicode="&#x202f;" horiz-adv-x="378" />
<glyph unicode="&#x2039;" horiz-adv-x="964" d="M61 784l562 562l225 -228l-334 -334l334 -335l-225 -226z" />
<glyph unicode="&#x203a;" horiz-adv-x="985" d="M61 451l334 333l-334 336l226 226l561 -562l-561 -561z" />
<glyph unicode="&#x205f;" horiz-adv-x="473" />
<glyph unicode="&#x20ac;" d="M-145 455v196h153q0 70 2 107h-155v196h190q29 103 75 192.5t109 161.5t146 114t176 42q150 0 278.5 -67t214.5 -185l-213 -135q-72 63 -134 90t-146 27q-79 0 -137.5 -66.5t-94.5 -173.5h381v-196h-419q-2 -23 -2 -107h421v-196h-389q34 -118 94.5 -193.5t145.5 -75.5 q84 0 145.5 27.5t134.5 91.5l213 -137q-87 -116 -215.5 -183t-277.5 -67q-96 0 -181.5 44.5t-149 121t-110 170.5t-73.5 201h-182z" />
<glyph unicode="&#x2122;" horiz-adv-x="1171" d="M88 1231v100h473v-100h-180v-373h-113v373h-180zM612 858v473h115v-2l133 -264l135 266h113v-473h-113v242l-110 -242h-49l-109 240v-240h-115z" />
<glyph unicode="&#x25fc;" horiz-adv-x="1095" d="M0 0v1096h1096v-1096h-1096z" />
</font>
</defs>
</svg>
