<svg xmlns="http://www.w3.org/2000/svg" xmlns:xlink="http://www.w3.org/1999/xlink" width="16" height="17" viewBox="0 0 16 17"><defs><path id="a" d="M891.92 234.26a4.03 4.03 0 0 1-1.28-3c0-1.17.42-2.17 1.28-3a4.27 4.27 0 0 1 3.08-1.24c1.2 0 2.24.41 3.1 1.24a4.03 4.03 0 0 1 1.27 3c0 1.18-.43 2.18-1.28 3a4.27 4.27 0 0 1-3.09 1.25c-1.2 0-2.23-.42-3.08-1.25zm11.09 6.87c0 .89-.28 1.59-.83 2.1-.55.51-1.29.77-2.2.77h-9.95c-.91 0-1.65-.26-2.2-.77a2.71 2.71 0 0 1-.83-2.1 11.14 11.14 0 0 1 .5-3.55c.12-.36.28-.72.49-1.07.2-.35.44-.65.7-.9.27-.24.6-.44.97-.59.39-.15.81-.22 1.27-.22.07 0 .23.08.48.24l.85.53a5.5 5.5 0 0 0 4.26.53c.5-.16.91-.34 1.23-.53l.85-.53c.25-.16.4-.24.47-.24.47 0 .89.07 1.27.22s.7.35.97.6c.27.24.5.54.7.89.21.35.38.7.5 1.08a9.1 9.1 0 0 1 .46 2.4c.03.37.04.75.04 1.14z"/></defs><desc>Generated with Avocode.</desc><g transform="translate(-887 -227)"><use xlink:href="#a"/><use fill="#363636" xlink:href="#a"/></g></svg>