<svg xmlns="http://www.w3.org/2000/svg" xmlns:xlink="http://www.w3.org/1999/xlink" width="20" height="16" viewBox="0 0 20 16"><defs><path id="a" d="M934.16 242.98c-9.85-5.15-9.95-10.27-9.95-10.27a5.2 5.2 0 0 1 9.89-2.64 5.18 5.18 0 0 1 9.88 2.64s.03 5.12-9.82 10.27zm-5.5-14a.85.85 0 1 0 1.7 0 .85.85 0 1 0-1.7 0zm-1.2 4.44c-.1-.38-.14-.71-.14-1 0-1.08.56-1.59.6-1.63a.89.89 0 0 0-1.1-1.4 3.9 3.9 0 0 0-1.27 3.2c.01.4.08.83.2 1.3a.89.89 0 0 0 1.1.63.9.9 0 0 0 .62-1.1z"/></defs><desc>Generated with Avocode.</desc><g transform="translate(-924 -227)"><use xlink:href="#a"/><use fill="#363636" xlink:href="#a"/></g></svg>