<svg xmlns="http://www.w3.org/2000/svg" xmlns:xlink="http://www.w3.org/1999/xlink" width="19" height="19" viewBox="0 0 19 19"><defs><path id="a" d="M1028.65 242.24c0 .38-.14.71-.42 1-.28.27-.61.41-.99.41-.39 0-.72-.14-.99-.42l-3.77-3.76a7.52 7.52 0 0 1-4.39 1.37 7.75 7.75 0 0 1-7.13-4.73 7.56 7.56 0 0 1-.61-3.02 7.85 7.85 0 0 1 2.26-5.48 7.78 7.78 0 0 1 13.23 5.48c0 1.62-.46 3.08-1.37 4.39l3.77 3.77c.28.27.41.6.41 1zm-5.63-9.15c0-1.35-.48-2.51-1.45-3.48a4.73 4.73 0 0 0-3.48-1.45c-1.35 0-2.51.49-3.48 1.45a4.77 4.77 0 0 0-1.45 3.48c0 1.36.49 2.52 1.45 3.48a4.76 4.76 0 0 0 3.48 1.45c1.36 0 2.52-.48 3.48-1.45a4.73 4.73 0 0 0 1.45-3.48z"/></defs><desc>Generated with Avocode.</desc><g transform="translate(-1010 -225)"><use xlink:href="#a"/><use fill="#363636" xlink:href="#a"/></g></svg>