<svg xmlns="http://www.w3.org/2000/svg" xmlns:xlink="http://www.w3.org/1999/xlink" width="21" height="19" viewBox="0 0 21 19"><defs><path id="a" d="M980.43 242.43c.3-.3.68-.46 1.1-.46H970.6c.43 0 .8.16 1.1.46.31.3.46.68.46 1.1 0 .44-.15.8-.46 1.11-.3.3-.67.46-1.1.46-.43 0-.8-.15-1.1-.46a1.5 1.5 0 0 1-.47-1.1c0-.43.16-.8.46-1.1.3-.31.68-.47 1.1-.47h-.77a.75.75 0 0 1-.55-.23.75.75 0 0 1-.24-.55c0-.11.05-.27.14-.48.09-.2.2-.45.36-.73l.25-.46-2.16-10.06h-2.5a.75.75 0 0 1-.55-.23.75.75 0 0 1-.23-.55c0-.22.08-.4.23-.55a.75.75 0 0 1 .55-.24h3.13a.76.76 0 0 1 .6.27c.06.08.1.18.15.3.05.13.08.24.1.33l.06.36.06.3h14.68c.2 0 .4.09.55.24.15.16.23.34.23.55v6.26c0 .2-.07.37-.2.52a.76.76 0 0 1-.5.26l-12.76 1.5.06.25a11.77 11.77 0 0 1 .1.6c0 .13-.1.39-.3.78h11.25c.21 0 .4.08.55.23.16.16.23.34.23.55 0 .21-.07.4-.23.55a.75.75 0 0 1-.55.23h-.78c.43 0 .8.16 1.1.46.31.3.46.68.46 1.1 0 .44-.15.8-.46 1.11-.3.3-.67.46-1.1.46-.43 0-.8-.15-1.1-.46a1.5 1.5 0 0 1-.47-1.1c0-.43.16-.8.46-1.1z"/></defs><desc>Generated with Avocode.</desc><g transform="translate(-964 -227)"><use xlink:href="#a"/><use fill="#363636" xlink:href="#a"/></g></svg>